# xmcd CD database file
#
# Track frame offsets:
#	150
#	20913
#	49803
#	68838
#	98916
#	130803
#	161070
#	180456
#	201435
#	264102
#	291831
#	319722
#
# Disc length: 4588 seconds
#
# Revision: 0
# Processed by: cddbd v1.5.2PL0 Copyright (c) Steve Scherf et al.
# Submitted via: CDex 1.51
#
DISCID=ae11ea0c
DTITLE=Antony Santos - Porque No Me Das Tu Amor
DYEAR=1900
DGENRE=Merengue
TTITLE0=Porque No Me Das Tu Amor
TTITLE1=Ay! Si
TTITLE2=Me Van A Matar Por Las Mujeres
TTITLE3=Yolanda, Merengue
TTITLE4=Todas Las Mujeres Me Gustan
TTITLE5=Amarga Pena
TTITLE6=La Cañaguatera
TTITLE7=Vamos Hablar Ingles
TTITLE8=El Chico Del Apartamento 5-12
TTITLE9=Brazol LArgo
TTITLE10=El Quililin Quililan
TTITLE11=Yo Vote A Mi Negra
EXTD=
EXTT0=
EXTT1=
EXTT2=
EXTT3=
EXTT4=
EXTT5=
EXTT6=
EXTT7=
EXTT8=
EXTT9=
EXTT10=
EXTT11=
PLAYORDER=
